<svg width="60" height="60" viewBox="0 0 60 60" fill="none" xmlns="http://www.w3.org/2000/svg">
<path d="M30.066 60H29.934C13.4285 60 0 46.5715 0 30.066V29.934C0 13.4285 13.4285 0 29.934 0H30.066C46.5715 0 60 13.4285 60 29.934V30.066C60 46.5715 46.5715 60 30.066 60ZM29.934 2.03094C14.5476 2.03094 2.03094 14.5476 2.03094 29.934V30.066C2.03094 45.4524 14.5476 57.9691 29.934 57.9691H30.066C45.4524 57.9691 57.9691 45.4524 57.9691 30.066V29.934C57.9691 14.5476 45.4524 2.03094 30.066 2.03094H29.934Z" fill="#2E6F40"/>
<path d="M11.9958 29.0069C12.077 28.9663 12.1583 28.9277 12.2375 28.8911C13.6145 28.2534 15.0097 27.6563 16.403 27.0592C16.4781 27.0592 16.604 26.9719 16.6751 26.9434C16.7827 26.8967 16.8904 26.852 16.998 26.8053C17.2052 26.716 17.4123 26.6286 17.6175 26.5393C18.0318 26.3626 18.444 26.1859 18.8583 26.0092C19.6849 25.6558 20.5115 25.3025 21.3381 24.947C22.9913 24.2403 24.6465 23.5314 26.2997 22.8247C27.9529 22.1179 29.6081 21.4091 31.2613 20.7024C32.9145 19.9956 34.5697 19.2868 36.2229 18.58C37.876 17.8733 39.5313 17.1645 41.1845 16.4577C41.5521 16.2993 41.9501 16.0637 42.3441 15.9946C42.6752 15.9358 42.9981 15.822 43.3311 15.7591C43.9628 15.6393 44.6594 15.5905 45.2646 15.8525C45.4738 15.9439 45.6667 16.0718 45.8272 16.2323C46.5949 16.9918 46.4872 18.2388 46.3247 19.3071C45.1935 26.7525 44.0623 34.2 42.929 41.6454C42.7747 42.667 42.5634 43.788 41.7572 44.4339C41.0748 44.9802 40.104 45.0411 39.2611 44.8096C38.4183 44.576 37.675 44.0866 36.9459 43.6052C33.9218 41.6027 30.8957 39.6002 27.8717 37.5977C27.1527 37.1225 26.3525 36.501 26.3607 35.6379C26.3647 35.118 26.6754 34.6549 26.9922 34.2426C29.6203 30.8144 33.412 28.4585 36.233 25.1887C36.6311 24.7277 36.9439 23.895 36.3975 23.629C36.0726 23.4706 35.6989 23.6858 35.4023 23.8909C31.6735 26.4804 27.9468 29.0718 24.218 31.6613C23.0015 32.5062 21.726 33.3754 20.2597 33.5825C18.9477 33.7694 17.6276 33.4038 16.3583 33.0301C15.2941 32.7174 14.2319 32.3965 13.1737 32.0654C12.6112 31.8908 12.0303 31.7019 11.5957 31.3059C11.1611 30.9098 10.9113 30.2437 11.1733 29.7157C11.3378 29.3846 11.6567 29.1755 11.9918 29.0049L11.9958 29.0069Z" fill="#2E6F40"/>
</svg>
