<svg width="40" height="40" viewBox="0 0 40 40" fill="none" xmlns="http://www.w3.org/2000/svg">
<g clip-path="url(#clip0_4694_29)">
<g filter="url(#filter0_d_4694_29)">
<path d="M30 26C28.6 26 27.4167 25.5167 26.45 24.55C25.4833 23.5833 25 22.4 25 21C25 19.6 25.4833 18.4167 26.45 17.45C27.4167 16.4833 28.6 16 30 16C31.4 16 32.5833 16.4833 33.55 17.45C34.5167 18.4167 35 19.6 35 21C35 22.4 34.5167 23.5833 33.55 24.55C32.5833 25.5167 31.4 26 30 26ZM22 36C21.4333 36 20.9587 35.808 20.576 35.424C20.192 35.0413 20 34.5667 20 34V33.2C20 32.4 20.208 31.6587 20.624 30.976C21.0413 30.292 21.6333 29.8 22.4 29.5C23.6 29 24.842 28.6253 26.126 28.376C27.4087 28.1253 28.7 28 30 28C31.3 28 32.592 28.1253 33.876 28.376C35.1587 28.6253 36.4 29 37.6 29.5C38.3667 29.8 38.9587 30.292 39.376 30.976C39.792 31.6587 40 32.4 40 33.2V34C40 34.5667 39.808 35.0413 39.424 35.424C39.0413 35.808 38.5667 36 38 36H22ZM16 20C13.8 20 11.9167 19.2167 10.35 17.65C8.78333 16.0833 8 14.2 8 12C8 9.8 8.78333 7.91667 10.35 6.35C11.9167 4.78333 13.8 4 16 4C18.2 4 20.0833 4.78333 21.65 6.35C23.2167 7.91667 24 9.8 24 12C24 14.2 23.2167 16.0833 21.65 17.65C20.0833 19.2167 18.2 20 16 20ZM2 36C1.43333 36 0.958667 35.808 0.576 35.424C0.192 35.0413 0 34.5667 0 34V30C0 29.1333 0.3 28.2753 0.9 27.426C1.5 26.5753 2.38333 25.8333 3.55 25.2C5.35 24.2333 7.31667 23.4587 9.45 22.876C11.5833 22.292 13.7667 22 16 22C16.9 22 17.8587 22.0667 18.876 22.2C19.892 22.3333 20.9333 22.5333 22 22.8V25.4C21.5333 25.5667 21.1333 25.7333 20.8 25.9C20.4667 26.0667 20.1167 26.25 19.75 26.45C19.15 26.2833 18.5253 26.1667 17.876 26.1C17.2253 26.0333 16.6 26 16 26C14.0667 26 12.1753 26.2333 10.326 26.7C8.47533 27.1667 6.7 27.8333 5 28.7C4.66667 28.8667 4.41667 29.1 4.25 29.4C4.08333 29.7 4 30.0333 4 30.4V32H16V36H2ZM16 16C17.1 16 18.042 15.608 18.826 14.824C19.6087 14.0413 20 13.1 20 12C20 10.9 19.6087 9.95867 18.826 9.176C18.042 8.392 17.1 8 16 8C14.9 8 13.9587 8.392 13.176 9.176C12.392 9.95867 12 10.9 12 12C12 13.1 12.392 14.0413 13.176 14.824C13.9587 15.608 14.9 16 16 16Z" fill="url(#paint0_radial_4694_29)"/>
<path d="M16 22.25C16.8878 22.25 17.8357 22.3161 18.8438 22.4482C19.7896 22.5724 20.758 22.7568 21.75 22.998V25.2256C21.3464 25.3748 20.9922 25.5249 20.6885 25.6768C20.3785 25.8317 20.0545 26.0005 19.7168 26.1836C19.1333 26.0274 18.5282 25.9159 17.9014 25.8516C17.243 25.7841 16.6092 25.75 16 25.75C14.0463 25.75 12.1343 25.9862 10.2646 26.458C8.39669 26.9291 6.60464 27.6019 4.88867 28.4766C4.51438 28.6637 4.2245 28.9305 4.03125 29.2783C3.84254 29.618 3.75 29.9942 3.75 30.4004V32C3.75 32.1381 3.86193 32.25 4 32.25H15.75V35.75H2C1.49643 35.75 1.08637 35.5817 0.75293 35.2471L0.634766 35.1182C0.37852 34.8095 0.25 34.4406 0.25 34V30C0.25 29.1946 0.528215 28.3861 1.10449 27.5703C1.67705 26.7586 2.52721 26.0398 3.66895 25.4199L3.66797 25.4189C5.44989 24.462 7.39922 23.6952 9.51562 23.1172C11.6272 22.5391 13.7887 22.25 16 22.25ZM30 28.25C31.1235 28.25 32.241 28.3446 33.3525 28.5342L33.8281 28.6211C35.0943 28.8672 36.3196 29.237 37.5039 29.7305L37.5088 29.7324C38.2261 30.0131 38.7741 30.4705 39.1621 31.1064C39.5542 31.7499 39.75 32.4461 39.75 33.2002V34C39.75 34.4406 39.6215 34.8095 39.3652 35.1182L39.2471 35.2471C38.9136 35.5817 38.5036 35.75 38 35.75H22C21.4964 35.75 21.0864 35.5817 20.7529 35.2471L20.6348 35.1182C20.3785 34.8095 20.25 34.4406 20.25 34V33.2002C20.25 32.4461 20.4458 31.7499 20.8379 31.1064C21.2259 30.4705 21.7739 30.0131 22.4912 29.7324L22.4961 29.7305C23.5323 29.2987 24.6003 28.9621 25.7002 28.7197L26.1738 28.6211C27.4408 28.3735 28.7162 28.25 30 28.25ZM30 16.25C31.3355 16.25 32.4545 16.7084 33.373 17.627C34.2916 18.5455 34.75 19.6645 34.75 21C34.75 22.3355 34.2916 23.4545 33.373 24.373C32.4545 25.2916 31.3355 25.75 30 25.75C28.6645 25.75 27.5455 25.2916 26.627 24.373C25.7084 23.4545 25.25 22.3355 25.25 21C25.25 19.6645 25.7084 18.5455 26.627 17.627C27.5455 16.7084 28.6645 16.25 30 16.25ZM16 4.25C18.1332 4.25 19.9535 5.00621 21.4736 6.52637C22.9938 8.04652 23.75 9.86683 23.75 12C23.75 14.1332 22.9938 15.9535 21.4736 17.4736C19.9535 18.9938 18.1332 19.75 16 19.75C13.8668 19.75 12.0465 18.9938 10.5264 17.4736C9.00621 15.9535 8.25 14.1332 8.25 12C8.25 9.86683 9.00621 8.04652 10.5264 6.52637C12.0465 5.00621 13.8668 4.25 16 4.25ZM16 7.75C14.8332 7.75 13.8282 8.16852 12.999 8.99902C12.1685 9.82818 11.75 10.8332 11.75 12C11.75 13.1668 12.1685 14.1718 12.999 15.001C13.8282 15.8315 14.8332 16.25 16 16.25C17.1669 16.25 18.1725 15.8314 19.0029 15.001C19.8322 14.1718 20.25 13.1668 20.25 12C20.25 10.8332 19.8322 9.82825 19.0029 8.99902C18.1725 8.16857 17.1669 7.75 16 7.75Z" stroke="#383D38" stroke-width="0.5" stroke-linejoin="round"/>
</g>
</g>
<defs>
<filter id="filter0_d_4694_29" x="-2" y="4" width="44" height="36" filterUnits="userSpaceOnUse" color-interpolation-filters="sRGB">
<feFlood flood-opacity="0" result="BackgroundImageFix"/>
<feColorMatrix in="SourceAlpha" type="matrix" values="0 0 0 0 0 0 0 0 0 0 0 0 0 0 0 0 0 0 127 0" result="hardAlpha"/>
<feOffset dy="2"/>
<feGaussianBlur stdDeviation="1"/>
<feComposite in2="hardAlpha" operator="out"/>
<feColorMatrix type="matrix" values="0 0 0 0 0 0 0 0 0 0 0 0 0 0 0 0 0 0 0.35 0"/>
<feBlend mode="normal" in2="BackgroundImageFix" result="effect1_dropShadow_4694_29"/>
<feBlend mode="normal" in="SourceGraphic" in2="effect1_dropShadow_4694_29" result="shape"/>
</filter>
<radialGradient id="paint0_radial_4694_29" cx="0" cy="0" r="1" gradientUnits="userSpaceOnUse" gradientTransform="translate(39.7808 3.58975) rotate(141.031) scale(50.8825 73.3841)">
<stop stop-color="#FF8385"/>
<stop offset="1" stop-color="#FFD500"/>
</radialGradient>
<clipPath id="clip0_4694_29">
<rect width="40" height="40" fill="white"/>
</clipPath>
</defs>
</svg>
