<svg width="60" height="60" viewBox="0 0 60 60" fill="none" xmlns="http://www.w3.org/2000/svg">
<path d="M30.066 60H29.934C13.4286 60 0 46.5715 0 30.066V29.934C0 13.4285 13.4286 0 29.934 0H30.066C46.5714 0 60 13.4285 60 29.934V30.066C60 46.5715 46.5714 60 30.066 60ZM29.934 2.03094C14.5476 2.03094 2.03094 14.5476 2.03094 29.934V30.066C2.03094 45.4524 14.5476 57.9691 29.934 57.9691H30.066C45.4524 57.9691 57.9691 45.4524 57.9691 30.066V29.934C57.9691 14.5476 45.4524 2.03094 30.066 2.03094H29.934Z" fill="#383D38"/>
<path d="M38.9691 12.8105H21.0318C16.0763 12.8105 12.0449 16.842 12.0449 21.7974V38.2074C12.0449 43.1629 16.0763 47.1943 21.0318 47.1943H38.9691C43.9246 47.1943 47.956 43.1629 47.956 38.2074V21.7974C47.956 16.842 43.9246 12.8105 38.9691 12.8105ZM15.2152 21.7974C15.2152 18.5906 17.825 15.9808 21.0318 15.9808H38.9691C42.1759 15.9808 44.7857 18.5906 44.7857 21.7974V38.2074C44.7857 41.4142 42.1759 44.024 38.9691 44.024H21.0318C17.825 44.024 15.2152 41.4142 15.2152 38.2074V21.7974Z" fill="#383D38"/>
<path d="M30 38.3573C34.6082 38.3573 38.3593 34.6082 38.3593 29.998C38.3593 25.3878 34.6102 21.6387 30 21.6387C25.3897 21.6387 21.6406 25.3878 21.6406 29.998C21.6406 34.6082 25.3897 38.3573 30 38.3573ZM30 24.811C32.8616 24.811 35.189 27.1384 35.189 30C35.189 32.8616 32.8616 35.1891 30 35.1891C27.1384 35.1891 24.8109 32.8616 24.8109 30C24.8109 27.1384 27.1384 24.811 30 24.811Z" fill="#383D38"/>
<path d="M39.1351 22.9909C40.376 22.9909 41.3874 21.9816 41.3874 20.7387C41.3874 19.4957 40.3781 18.4863 39.1351 18.4863C37.8922 18.4863 36.8828 19.4957 36.8828 20.7387C36.8828 21.9816 37.8922 22.9909 39.1351 22.9909Z" fill="#383D38"/>
</svg>
