<svg width="60" height="60" viewBox="0 0 60 60" fill="none" xmlns="http://www.w3.org/2000/svg">
<path d="M30.066 60H29.934C13.4286 60 0 46.5715 0 30.066V29.934C0 13.4285 13.4286 0 29.934 0H30.066C46.5714 0 60 13.4285 60 29.934V30.066C60 46.5715 46.5714 60 30.066 60ZM29.934 2.03094C14.5476 2.03094 2.03094 14.5476 2.03094 29.934V30.066C2.03094 45.4524 14.5476 57.9691 29.934 57.9691H30.066C45.4524 57.9691 57.9691 45.4524 57.9691 30.066V29.934C57.9691 14.5476 45.4524 2.03094 30.066 2.03094H29.934Z" fill="#2E6F40"/>
<path d="M35.6504 38.4802C28.2313 38.4802 22.1954 32.4423 22.1934 25.0232C22.1954 23.1426 23.7267 21.6133 25.6033 21.6133C25.7963 21.6133 25.9871 21.6295 26.1699 21.662C26.5721 21.729 26.9539 21.8651 27.3052 22.0702C27.356 22.1007 27.3905 22.1495 27.3987 22.2063L28.1826 27.1476C28.1927 27.2065 28.1745 27.2634 28.1359 27.306C27.7033 27.7853 27.1509 28.1306 26.5355 28.3032L26.239 28.3865L26.3507 28.6728C27.3621 31.2481 29.4215 33.3054 31.9987 34.3209L32.2851 34.4346L32.3684 34.1381C32.541 33.5227 32.8862 32.9703 33.3655 32.5377C33.4001 32.5052 33.4468 32.489 33.4935 32.489C33.5037 32.489 33.5138 32.489 33.526 32.491L38.4673 33.275C38.5262 33.2851 38.5749 33.3176 38.6054 33.3684C38.8085 33.7197 38.9445 34.1035 39.0136 34.5057C39.0461 34.6844 39.0603 34.8733 39.0603 35.0703C39.0603 36.9489 37.531 38.4782 35.6504 38.4802Z" fill="#2E6F40"/>
<path d="M48.8054 28.3697C48.4053 23.8488 46.3337 19.655 42.9725 16.5618C39.591 13.4504 35.2042 11.7363 30.6163 11.7363C20.5469 11.7363 12.3541 19.9291 12.3541 29.9985C12.3541 33.378 13.2863 36.6701 15.0512 39.5378L11.1152 48.2506L23.7172 46.9081C25.9086 47.8058 28.2279 48.2607 30.6143 48.2607C31.2418 48.2607 31.8856 48.2282 32.5315 48.1612C33.1001 48.1003 33.6749 48.0109 34.2395 47.8972C42.672 46.1932 48.8277 38.7092 48.8765 30.096V29.9985C48.8765 29.4502 48.8521 28.9018 48.8034 28.3717L48.8054 28.3697ZM24.2026 43.0838L17.2304 43.8272L19.3121 39.2149L18.8958 38.6564C18.8653 38.6158 18.8348 38.5752 18.8003 38.5285C16.9928 36.0324 16.0382 33.0835 16.0382 30.0005C16.0382 21.9621 22.5779 15.4225 30.6163 15.4225C38.147 15.4225 44.5303 21.298 45.1456 28.7982C45.1781 29.2004 45.1964 29.6045 45.1964 30.0026C45.1964 30.1163 45.1944 30.228 45.1923 30.3478C45.038 37.0723 40.3404 42.7833 33.7683 44.2374C33.2667 44.3492 32.7528 44.4344 32.2411 44.4893C31.7089 44.5502 31.1626 44.5807 30.6204 44.5807C28.6889 44.5807 26.8124 44.207 25.0394 43.4677C24.8424 43.3885 24.6494 43.3032 24.4686 43.2159L24.2046 43.0879L24.2026 43.0838Z" fill="#2E6F40"/>
</svg>
