<svg width="60" height="60" viewBox="0 0 60 60" fill="none" xmlns="http://www.w3.org/2000/svg">
<path d="M30 60C13.4574 60 0 46.5427 0 30C0 13.4573 13.4574 0 30 0C46.5427 0 60 13.4573 60 30C60 46.5427 46.5427 60 30 60ZM30 2.03652C14.5815 2.03652 2.03652 14.5815 2.03652 30C2.03652 45.4185 14.5815 57.9635 30 57.9635C45.4185 57.9635 57.9635 45.4185 57.9635 30C57.9635 14.5815 45.4185 2.03652 30 2.03652Z" fill="#383D38"/>
<path d="M48.2486 23.9972C48.0205 21.7957 47.5297 19.3621 45.7233 18.0831C44.3242 17.0913 42.4852 17.0547 40.7685 17.0567C37.1394 17.0587 33.5083 17.0628 29.8792 17.0649C26.3886 17.0689 22.898 17.071 19.4074 17.0751C17.9492 17.0771 16.5318 16.9631 15.1775 17.5944C14.0146 18.1361 13.1043 19.1665 12.5565 20.3131C11.7969 21.9077 11.638 23.7141 11.5464 25.4777C11.3774 28.6893 11.3957 31.9091 11.5973 35.1187C11.746 37.4607 12.1227 40.049 13.9332 41.5418C15.538 42.8635 17.8026 42.9287 19.8839 42.9307C26.4904 42.9368 33.0989 42.943 39.7074 42.947C40.5546 42.9491 41.4385 42.9328 42.302 42.8391C44.0004 42.6558 45.6194 42.1691 46.711 40.9105C47.8128 39.6418 48.0959 37.8761 48.2629 36.2041C48.6702 32.1473 48.6661 28.0519 48.2486 23.9972ZM26.0587 35.6888V24.3149L35.9073 30.0008L26.0587 35.6888Z" fill="#383D38"/>
</svg>
